<svg width="200" height="200" viewBox="0 0 200 200" fill="none" xmlns="http://www.w3.org/2000/svg">
<circle cx="29.5" cy="24.5" r="12.5" fill="#9FFFEC" fill-opacity="0.2"/>
<circle cx="170.5" cy="24.5" r="12.5" fill="#9FFFEC" fill-opacity="0.2"/>
<circle cx="123.5" cy="24.5" r="12.5" fill="#9FFFEC" fill-opacity="0.2"/>
<circle cx="76.5" cy="24.5" r="12.5" fill="#9FFFEC" fill-opacity="0.2"/>
<circle cx="29.5" cy="176.5" r="12.5" fill="#9FFFEC" fill-opacity="0.2"/>
<circle cx="170.5" cy="176.5" r="12.5" fill="#9FFFEC" fill-opacity="0.2"/>
<circle cx="123.5" cy="176.5" r="12.5" fill="#9FFFEC" fill-opacity="0.2"/>
<circle cx="76.5" cy="176.5" r="12.5" fill="#9FFFEC" fill-opacity="0.2"/>
<circle cx="29.5" cy="138.5" r="12.5" fill="#9FFFEC" fill-opacity="0.2"/>
<circle cx="170.5" cy="138.5" r="12.5" fill="#9FFFEC" fill-opacity="0.2"/>
<circle cx="123.5" cy="138.5" r="12.5" fill="#9FFFEC" fill-opacity="0.2"/>
<circle cx="76.5" cy="138.5" r="12.5" fill="#9FFFEC" fill-opacity="0.2"/>
<circle cx="29.5" cy="100.5" r="12.5" fill="#9FFFEC" fill-opacity="0.2"/>
<circle cx="170.5" cy="100.5" r="12.5" fill="#9FFFEC" fill-opacity="0.2"/>
<circle cx="123.5" cy="100.5" r="12.5" fill="#9FFFEC" fill-opacity="0.2"/>
<circle cx="76.5" cy="100.5" r="12.5" fill="#9FFFEC" fill-opacity="0.2"/>
<circle cx="29.5" cy="62.5" r="12.5" fill="#9FFFEC" fill-opacity="0.2"/>
<circle cx="170.5" cy="62.5" r="12.5" fill="#9FFFEC" fill-opacity="0.2"/>
<circle cx="123.5" cy="62.5" r="12.5" fill="#9FFFEC" fill-opacity="0.2"/>
<circle cx="76.5" cy="62.5" r="12.5" fill="#9FFFEC" fill-opacity="0.2"/>
</svg>
